<svg xmlns="http://www.w3.org/2000/svg" xmlns:xlink="http://www.w3.org/1999/xlink" width="1000" zoomAndPan="magnify" viewBox="0 0 750 225" height="300" preserveAspectRatio="xMidYMid meet" version="1.0"><defs><g/><clipPath id="bfb6e86f50"><path d="M 207.207031 108.136719 L 231.15625 108.136719 L 231.15625 132.085938 L 207.207031 132.085938 Z M 207.207031 108.136719 " clip-rule="nonzero"/></clipPath><clipPath id="3ed3f6f415"><path d="M 219.183594 108.136719 C 212.566406 108.136719 207.207031 113.5 207.207031 120.113281 C 207.207031 126.726562 212.566406 132.085938 219.183594 132.085938 C 225.796875 132.085938 231.15625 126.726562 231.15625 120.113281 C 231.15625 113.5 225.796875 108.136719 219.183594 108.136719 Z M 219.183594 108.136719 " clip-rule="nonzero"/></clipPath><clipPath id="f05a007281"><path d="M 0.207031 0.136719 L 24.15625 0.136719 L 24.15625 24.085938 L 0.207031 24.085938 Z M 0.207031 0.136719 " clip-rule="nonzero"/></clipPath><clipPath id="a6d289f2b3"><path d="M 12.183594 0.136719 C 5.566406 0.136719 0.207031 5.5 0.207031 12.113281 C 0.207031 18.726562 5.566406 24.085938 12.183594 24.085938 C 18.796875 24.085938 24.15625 18.726562 24.15625 12.113281 C 24.15625 5.5 18.796875 0.136719 12.183594 0.136719 Z M 12.183594 0.136719 " clip-rule="nonzero"/></clipPath><clipPath id="45d5e2a581"><rect x="0" width="25" y="0" height="25"/></clipPath><clipPath id="7e074c6e67"><path d="M 212.535156 115.367188 L 218.421875 115.367188 L 218.421875 121.253906 L 212.535156 121.253906 Z M 212.535156 115.367188 " clip-rule="nonzero"/></clipPath><clipPath id="f0b71756f1"><path d="M 215.476562 115.367188 C 213.851562 115.367188 212.535156 116.683594 212.535156 118.308594 C 212.535156 119.933594 213.851562 121.253906 215.476562 121.253906 C 217.101562 121.253906 218.421875 119.933594 218.421875 118.308594 C 218.421875 116.683594 217.101562 115.367188 215.476562 115.367188 Z M 215.476562 115.367188 " clip-rule="nonzero"/></clipPath><clipPath id="d9a6845763"><path d="M 0.535156 0.367188 L 6.421875 0.367188 L 6.421875 6.253906 L 0.535156 6.253906 Z M 0.535156 0.367188 " clip-rule="nonzero"/></clipPath><clipPath id="f2ab0bb48a"><path d="M 3.476562 0.367188 C 1.851562 0.367188 0.535156 1.683594 0.535156 3.308594 C 0.535156 4.933594 1.851562 6.253906 3.476562 6.253906 C 5.101562 6.253906 6.421875 4.933594 6.421875 3.308594 C 6.421875 1.683594 5.101562 0.367188 3.476562 0.367188 Z M 3.476562 0.367188 " clip-rule="nonzero"/></clipPath><clipPath id="efc7627653"><rect x="0" width="7" y="0" height="7"/></clipPath></defs><g fill="#ffffff" fill-opacity="1"><g transform="translate(99.307136, 144.355065)"><g><path d="M 8.828125 0 L 8.828125 -49.265625 L 15.375 -49.265625 L 16.140625 -43.109375 C 19.929688 -48.035156 25.28125 -50.5 32.1875 -50.5 C 36.101562 -50.5 39.550781 -49.675781 42.53125 -48.03125 C 45.507812 -46.382812 47.820312 -43.984375 49.46875 -40.828125 C 53.445312 -47.273438 59.550781 -50.5 67.78125 -50.5 C 73.988281 -50.5 78.941406 -48.503906 82.640625 -44.515625 C 86.347656 -40.535156 88.203125 -35.097656 88.203125 -28.203125 L 88.203125 0 L 80.21875 0 L 80.21875 -26.875 C 80.21875 -31.738281 79 -35.625 76.5625 -38.53125 C 74.125 -41.445312 70.847656 -42.90625 66.734375 -42.90625 C 62.492188 -42.90625 59.0625 -41.382812 56.4375 -38.34375 C 53.8125 -35.3125 52.5 -31.265625 52.5 -26.203125 L 52.5 0 L 44.53125 0 L 44.53125 -26.875 C 44.53125 -31.738281 43.3125 -35.625 40.875 -38.53125 C 38.4375 -41.445312 35.160156 -42.90625 31.046875 -42.90625 C 26.804688 -42.90625 23.367188 -41.382812 20.734375 -38.34375 C 18.109375 -35.3125 16.796875 -31.265625 16.796875 -26.203125 L 16.796875 0 Z M 8.828125 0 "/></g></g></g><g fill="#10b981" fill-opacity="1"><g transform="translate(187.795414, 144.355065)"><g><path d="M 31.046875 1.234375 C 25.921875 1.234375 21.394531 0.128906 17.46875 -2.078125 C 13.539062 -4.296875 10.46875 -7.367188 8.25 -11.296875 C 6.039062 -15.222656 4.9375 -19.6875 4.9375 -24.6875 C 4.9375 -29.75 6.039062 -34.207031 8.25 -38.0625 C 10.46875 -41.925781 13.539062 -44.960938 17.46875 -47.171875 C 21.394531 -49.390625 25.921875 -50.5 31.046875 -50.5 C 36.171875 -50.5 40.691406 -49.390625 44.609375 -47.171875 C 48.535156 -44.960938 51.609375 -41.925781 53.828125 -38.0625 C 56.046875 -34.207031 57.15625 -29.75 57.15625 -24.6875 C 57.15625 -19.6875 56.046875 -15.222656 53.828125 -11.296875 C 51.609375 -7.367188 48.535156 -4.296875 44.609375 -2.078125 C 40.691406 0.128906 36.171875 1.234375 31.046875 1.234375 Z M 12.90625 -24.6875 C 12.90625 -21.070312 13.679688 -17.890625 15.234375 -15.140625 C 16.785156 -12.390625 18.921875 -10.253906 21.640625 -8.734375 C 24.367188 -7.210938 27.503906 -6.453125 31.046875 -6.453125 C 34.585938 -6.453125 37.71875 -7.210938 40.4375 -8.734375 C 43.164062 -10.253906 45.300781 -12.390625 46.84375 -15.140625 C 48.394531 -17.890625 49.171875 -21.070312 49.171875 -24.6875 C 49.171875 -28.289062 48.394531 -31.453125 46.84375 -34.171875 C 45.300781 -36.898438 43.164062 -39.035156 40.4375 -40.578125 C 37.71875 -42.128906 34.585938 -42.90625 31.046875 -42.90625 C 27.503906 -42.90625 24.367188 -42.128906 21.640625 -40.578125 C 18.921875 -39.035156 16.785156 -36.898438 15.234375 -34.171875 C 13.679688 -31.453125 12.90625 -28.289062 12.90625 -24.6875 Z M 12.90625 -24.6875 "/></g></g></g><g fill="#ffffff" fill-opacity="1"><g transform="translate(242.287599, 144.355065)"><g><path d="M 30.28125 1.234375 C 25.34375 1.234375 20.972656 0.128906 17.171875 -2.078125 C 13.378906 -4.296875 10.390625 -7.367188 8.203125 -11.296875 C 6.023438 -15.222656 4.9375 -19.6875 4.9375 -24.6875 C 4.9375 -29.6875 6.023438 -34.128906 8.203125 -38.015625 C 10.390625 -41.910156 13.378906 -44.960938 17.171875 -47.171875 C 20.972656 -49.390625 25.34375 -50.5 30.28125 -50.5 C 34.394531 -50.5 38.160156 -49.722656 41.578125 -48.171875 C 44.992188 -46.628906 47.875 -44.476562 50.21875 -41.71875 C 52.5625 -38.96875 54.144531 -35.726562 54.96875 -32 L 46.90625 -32 C 45.445312 -35.414062 43.242188 -38.085938 40.296875 -40.015625 C 37.359375 -41.941406 34.019531 -42.90625 30.28125 -42.90625 C 26.925781 -42.90625 23.9375 -42.128906 21.3125 -40.578125 C 18.6875 -39.035156 16.628906 -36.882812 15.140625 -34.125 C 13.648438 -31.375 12.90625 -28.226562 12.90625 -24.6875 C 12.90625 -21.144531 13.648438 -17.992188 15.140625 -15.234375 C 16.628906 -12.484375 18.6875 -10.332031 21.3125 -8.78125 C 23.9375 -7.226562 26.925781 -6.453125 30.28125 -6.453125 C 34.269531 -6.453125 37.765625 -7.507812 40.765625 -9.625 C 43.773438 -11.75 45.882812 -14.585938 47.09375 -18.140625 L 55.53125 -18.140625 C 53.882812 -12.179688 50.816406 -7.460938 46.328125 -3.984375 C 41.835938 -0.503906 36.488281 1.234375 30.28125 1.234375 Z M 30.28125 1.234375 "/></g></g></g><g fill="#ffffff" fill-opacity="1"><g transform="translate(294.880145, 144.355065)"><g><path d="M 8.828125 0 L 8.828125 -70.25 L 16.796875 -70.25 L 16.796875 -28.671875 L 22.96875 -28.671875 C 26.957031 -28.671875 30.023438 -29.347656 32.171875 -30.703125 C 34.328125 -32.066406 36.101562 -34.742188 37.5 -38.734375 L 41.203125 -49.265625 L 49.75 -49.265625 L 44.8125 -35.796875 C 42.78125 -30.347656 40.054688 -26.550781 36.640625 -24.40625 L 52.03125 0 L 42.53125 0 L 28.953125 -21.734375 C 28.003906 -21.546875 27.007812 -21.421875 25.96875 -21.359375 C 24.925781 -21.296875 23.832031 -21.265625 22.6875 -21.265625 L 16.796875 -21.265625 L 16.796875 0 Z M 8.828125 0 "/></g></g></g><g fill="#ffffff" fill-opacity="1"><g transform="translate(342.631085, 144.355065)"><g><path d="M 28.484375 1.234375 C 22.023438 1.234375 16.972656 -0.851562 13.328125 -5.03125 C 9.691406 -9.207031 7.875 -14.804688 7.875 -21.828125 L 7.875 -49.265625 L 15.859375 -49.265625 L 15.859375 -22.59375 C 15.859375 -17.65625 17.078125 -13.726562 19.515625 -10.8125 C 21.953125 -7.90625 25.289062 -6.453125 29.53125 -6.453125 C 34.144531 -6.453125 37.890625 -8.097656 40.765625 -11.390625 C 43.648438 -14.679688 45.09375 -19.019531 45.09375 -24.40625 L 45.09375 -49.265625 L 53.0625 -49.265625 L 53.0625 0 L 46.515625 0 L 45.671875 -7.21875 C 43.515625 -4.300781 40.929688 -2.160156 37.921875 -0.796875 C 34.921875 0.554688 31.773438 1.234375 28.484375 1.234375 Z M 28.484375 1.234375 "/></g></g></g><g fill="#ffffff" fill-opacity="1"><g transform="translate(396.932441, 144.355065)"><g><path d="M 35.703125 1.234375 C 31.835938 1.234375 28.273438 0.488281 25.015625 -1 C 21.753906 -2.488281 19.015625 -4.5 16.796875 -7.03125 L 16.796875 18.984375 L 8.828125 18.984375 L 8.828125 -49.265625 L 15.375 -49.265625 L 16.328125 -41.671875 C 18.546875 -44.460938 21.316406 -46.628906 24.640625 -48.171875 C 27.960938 -49.722656 31.648438 -50.5 35.703125 -50.5 C 40.566406 -50.5 44.878906 -49.375 48.640625 -47.125 C 52.410156 -44.882812 55.375 -41.832031 57.53125 -37.96875 C 59.6875 -34.113281 60.765625 -29.6875 60.765625 -24.6875 C 60.765625 -19.6875 59.6875 -15.238281 57.53125 -11.34375 C 55.375 -7.445312 52.410156 -4.375 48.640625 -2.125 C 44.878906 0.113281 40.566406 1.234375 35.703125 1.234375 Z M 16.515625 -24.6875 C 16.515625 -21.144531 17.289062 -17.992188 18.84375 -15.234375 C 20.394531 -12.484375 22.53125 -10.332031 25.25 -8.78125 C 27.96875 -7.226562 31.101562 -6.453125 34.65625 -6.453125 C 38.257812 -6.453125 41.421875 -7.226562 44.140625 -8.78125 C 46.867188 -10.332031 48.988281 -12.484375 50.5 -15.234375 C 52.019531 -17.992188 52.78125 -21.144531 52.78125 -24.6875 C 52.78125 -28.226562 52.019531 -31.375 50.5 -34.125 C 48.988281 -36.882812 46.867188 -39.035156 44.140625 -40.578125 C 41.421875 -42.128906 38.257812 -42.90625 34.65625 -42.90625 C 31.101562 -42.90625 27.96875 -42.128906 25.25 -40.578125 C 22.53125 -39.035156 20.394531 -36.882812 18.84375 -34.125 C 17.289062 -31.375 16.515625 -28.226562 16.515625 -24.6875 Z M 16.515625 -24.6875 "/></g></g></g><g fill="#ffffff" fill-opacity="1"><g transform="translate(455.031151, 144.355065)"><g><path d="M 26.671875 1.234375 C 20.222656 1.234375 15.050781 -0.296875 11.15625 -3.359375 C 7.257812 -6.429688 5.25 -10.46875 5.125 -15.46875 L 13 -15.46875 C 13.132812 -12.5 14.398438 -10.160156 16.796875 -8.453125 C 19.203125 -6.742188 22.523438 -5.890625 26.765625 -5.890625 C 30.503906 -5.890625 33.445312 -6.535156 35.59375 -7.828125 C 37.75 -9.128906 38.828125 -10.882812 38.828125 -13.09375 C 38.828125 -15.3125 37.703125 -17.113281 35.453125 -18.5 C 33.210938 -19.894531 29.6875 -21.003906 24.875 -21.828125 C 18.539062 -22.910156 13.835938 -24.65625 10.765625 -27.0625 C 7.703125 -29.46875 6.171875 -32.597656 6.171875 -36.453125 C 6.171875 -40.890625 7.863281 -44.335938 11.25 -46.796875 C 14.632812 -49.265625 19.300781 -50.5 25.25 -50.5 C 31.332031 -50.5 36.191406 -49.15625 39.828125 -46.46875 C 43.460938 -43.78125 45.441406 -40 45.765625 -35.125 L 37.875 -35.125 C 37.625 -37.84375 36.40625 -39.914062 34.21875 -41.34375 C 32.039062 -42.769531 29.082031 -43.484375 25.34375 -43.484375 C 21.800781 -43.484375 19.03125 -42.863281 17.03125 -41.625 C 15.039062 -40.394531 14.046875 -38.671875 14.046875 -36.453125 C 14.046875 -34.367188 15.054688 -32.738281 17.078125 -31.5625 C 19.109375 -30.394531 22.6875 -29.304688 27.8125 -28.296875 C 40.40625 -25.828125 46.703125 -20.695312 46.703125 -12.90625 C 46.703125 -8.664062 44.882812 -5.25 41.25 -2.65625 C 37.613281 -0.0625 32.753906 1.234375 26.671875 1.234375 Z M 26.671875 1.234375 "/></g></g></g><g fill="#ffffff" fill-opacity="1"><g transform="translate(499.269522, 144.355065)"><g><path d="M 8.828125 0 L 8.828125 -70.25 L 16.796875 -70.25 L 16.796875 -42.8125 C 18.953125 -45.46875 21.515625 -47.410156 24.484375 -48.640625 C 27.460938 -49.878906 30.535156 -50.5 33.703125 -50.5 C 40.222656 -50.5 45.316406 -48.457031 48.984375 -44.375 C 52.660156 -40.300781 54.5 -34.75 54.5 -27.71875 L 54.5 0 L 46.515625 0 L 46.515625 -26.96875 C 46.515625 -31.90625 45.28125 -35.796875 42.8125 -38.640625 C 40.34375 -41.484375 36.957031 -42.90625 32.65625 -42.90625 C 28.039062 -42.90625 24.242188 -41.304688 21.265625 -38.109375 C 18.285156 -34.921875 16.796875 -30.601562 16.796875 -25.15625 L 16.796875 0 Z M 8.828125 0 "/></g></g></g><g fill="#ffffff" fill-opacity="1"><g transform="translate(554.045567, 144.355065)"><g><path d="M 31.046875 1.234375 C 25.921875 1.234375 21.394531 0.128906 17.46875 -2.078125 C 13.539062 -4.296875 10.46875 -7.367188 8.25 -11.296875 C 6.039062 -15.222656 4.9375 -19.6875 4.9375 -24.6875 C 4.9375 -29.75 6.039062 -34.207031 8.25 -38.0625 C 10.46875 -41.925781 13.539062 -44.960938 17.46875 -47.171875 C 21.394531 -49.390625 25.921875 -50.5 31.046875 -50.5 C 36.171875 -50.5 40.691406 -49.390625 44.609375 -47.171875 C 48.535156 -44.960938 51.609375 -41.925781 53.828125 -38.0625 C 56.046875 -34.207031 57.15625 -29.75 57.15625 -24.6875 C 57.15625 -19.6875 56.046875 -15.222656 53.828125 -11.296875 C 51.609375 -7.367188 48.535156 -4.296875 44.609375 -2.078125 C 40.691406 0.128906 36.171875 1.234375 31.046875 1.234375 Z M 12.90625 -24.6875 C 12.90625 -21.070312 13.679688 -17.890625 15.234375 -15.140625 C 16.785156 -12.390625 18.921875 -10.253906 21.640625 -8.734375 C 24.367188 -7.210938 27.503906 -6.453125 31.046875 -6.453125 C 34.585938 -6.453125 37.71875 -7.210938 40.4375 -8.734375 C 43.164062 -10.253906 45.300781 -12.390625 46.84375 -15.140625 C 48.394531 -17.890625 49.171875 -21.070312 49.171875 -24.6875 C 49.171875 -28.289062 48.394531 -31.453125 46.84375 -34.171875 C 45.300781 -36.898438 43.164062 -39.035156 40.4375 -40.578125 C 37.71875 -42.128906 34.585938 -42.90625 31.046875 -42.90625 C 27.503906 -42.90625 24.367188 -42.128906 21.640625 -40.578125 C 18.921875 -39.035156 16.785156 -36.898438 15.234375 -34.171875 C 13.679688 -31.453125 12.90625 -28.289062 12.90625 -24.6875 Z M 12.90625 -24.6875 "/></g></g></g><g fill="#ffffff" fill-opacity="1"><g transform="translate(608.536791, 144.355065)"><g><path d="M 30.09375 0 C 24.65625 0 20.429688 -1.546875 17.421875 -4.640625 C 14.410156 -7.742188 12.90625 -12.113281 12.90625 -17.75 L 12.90625 -41.96875 L 2.5625 -41.96875 L 2.5625 -49.265625 L 7.5 -49.265625 C 9.78125 -49.265625 11.363281 -49.644531 12.25 -50.40625 C 13.132812 -51.164062 13.703125 -52.65625 13.953125 -54.875 L 14.71875 -61.515625 L 20.890625 -61.515625 L 20.890625 -49.265625 L 36.828125 -49.265625 L 36.828125 -41.96875 L 20.890625 -41.96875 L 20.890625 -18.140625 C 20.890625 -11.171875 24.082031 -7.6875 30.46875 -7.6875 L 37.5 -7.6875 L 37.5 0 Z M 30.09375 0 "/></g></g></g><g clip-path="url(#bfb6e86f50)"><g clip-path="url(#3ed3f6f415)"><g transform="matrix(1, 0, 0, 1, 207, 108)"><g clip-path="url(#45d5e2a581)"><g clip-path="url(#f05a007281)"><g clip-path="url(#a6d289f2b3)"><path fill="#ffffff" d="M 0.207031 0.136719 L 24.15625 0.136719 L 24.15625 24.085938 L 0.207031 24.085938 Z M 0.207031 0.136719 " fill-opacity="1" fill-rule="nonzero"/></g></g></g></g></g></g><g clip-path="url(#7e074c6e67)"><g clip-path="url(#f0b71756f1)"><g transform="matrix(1, 0, 0, 1, 212, 115)"><g clip-path="url(#efc7627653)"><g clip-path="url(#d9a6845763)"><g clip-path="url(#f2ab0bb48a)"><path fill="#222c3a" d="M 0.535156 0.367188 L 6.421875 0.367188 L 6.421875 6.253906 L 0.535156 6.253906 Z M 0.535156 0.367188 " fill-opacity="1" fill-rule="nonzero"/></g></g></g></g></g></g></svg>